# xmcd
#
# Track frame offsets:
#  150
#  9565
#  35033
#  60480
#  78146
#  133293
#  153594
#  178470
#  197993
#  215480
#  246827
#  263385
#  281988
#  305485
#  319500
#
# Disc length: 4474 seconds
#
# Revision: 0
# Processed by: cddbd v1.5.1PL2 Copyright (c) Steve Scherf et al.
# Submitted via: Collectorz.com_Music_Collector 6.9
#
DISCID=dc11780f
DTITLE=Bruce Springsteen - Cool Rockin' Daddy In The Usa - Born In The Usa Tour Compilation - Disc 5
DYEAR=1985
DGENRE=
TTITLE0=Rave On
TTITLE1=Reason To Believe
TTITLE2=The River
TTITLE3=Rockin' All Over The World
TTITLE4=Rosalita
TTITLE5=Santa Claus Is Coming To Town
TTITLE6=Seeds
TTITLE7=Sherry Darling
TTITLE8=Shut Out The Light
TTITLE9=Spirit In The Night
TTITLE10=Stand On It
TTITLE11=State Trooper
TTITLE12=Stolen Car
TTITLE13=Street Fighting Man
TTITLE14=Sugarland
EXTD=
EXTT0=
EXTT1=
EXTT2=
EXTT3=
EXTT4=
EXTT5=
EXTT6=
EXTT7=
EXTT8=
EXTT9=
EXTT10=
EXTT11=
EXTT12=
EXTT13=
EXTT14=
PLAYORDER=
